<?xml version="1.0" encoding="UTF-8" standalone="no"?>
<svg width="28px" height="28px" viewBox="0 0 28 28" version="1.1" xmlns="http://www.w3.org/2000/svg" xmlns:xlink="http://www.w3.org/1999/xlink">
    <!-- Generator: Sketch 39 (31667) - http://www.bohemiancoding.com/sketch -->
    <title>icon_profile</title>
    <desc>Created with Sketch.</desc>
    <defs>
        <circle id="path-1" cx="13.2" cy="13.2" r="13.2"></circle>
        <mask id="mask-2" maskContentUnits="userSpaceOnUse" maskUnits="objectBoundingBox" x="0" y="0" width="26.4" height="26.4" fill="white">
            <use xlink:href="#path-1"></use>
        </mask>
        <path d="M13.185,14.9799331 C15.48675,14.9799331 17.37,13.0944482 17.37,10.7899666 C17.37,8.48548495 15.48675,6.6 13.185,6.6 C10.88325,6.6 9,8.48548495 9,10.7899666 C9,13.0944482 10.88325,14.9799331 13.185,14.9799331 L13.185,14.9799331 Z" id="path-3"></path>
        <mask id="mask-4" maskContentUnits="userSpaceOnUse" maskUnits="objectBoundingBox" x="0" y="0" width="8.37" height="8.37993311" fill="white">
            <use xlink:href="#path-3"></use>
        </mask>
        <path d="M22.8,22.1719064 C22.8,18.9508696 16.44,17.4 13.2,17.4 C9.96,17.4 3.6,18.9508696 3.6,22.1719064" id="path-5"></path>
        <mask id="mask-6" maskContentUnits="userSpaceOnUse" maskUnits="objectBoundingBox" x="0" y="0" width="19.2" height="4.77190635" fill="white">
            <use xlink:href="#path-5"></use>
        </mask>
    </defs>
    <g id="Page-1" stroke="none" stroke-width="1" fill="none" fill-rule="evenodd">
        <g id="icon_profile" transform="translate(-1.000000, -1.000000)">
            <g id="group" transform="translate(1.800000, 1.800000)" stroke="#202147" stroke-width="3">
                <use id="oval" mask="url(#mask-2)" xlink:href="#path-1"></use>
                <use id="shape" mask="url(#mask-4)" xlink:href="#path-3"></use>
                <use id="path" mask="url(#mask-6)" xlink:href="#path-5"></use>
            </g>
            <rect id="bounds" x="0" y="0" width="30" height="30"></rect>
        </g>
    </g>
</svg>