<?xml version="1.0" encoding="UTF-8" standalone="no"?>
<svg width="30px" height="24px" viewBox="0 0 30 24" version="1.1" xmlns="http://www.w3.org/2000/svg" xmlns:xlink="http://www.w3.org/1999/xlink">
    <!-- Generator: Sketch 39 (31667) - http://www.bohemiancoding.com/sketch -->
    <title>icon_client</title>
    <desc>Created with Sketch.</desc>
    <defs>
        <path d="M0,19.06021 L0,23.9814794 L19.5348837,23.9814794 L19.5348837,19.06021 C19.5348837,14.3002173 13.0639535,12.5 9.76744186,12.5 C6.47093023,12.5 0,14.3002173 0,19.06021 Z M10.1162791,9.70930233 C12.6104651,9.70930233 14.6511628,7.66860465 14.6511628,5.1744186 C14.6511628,2.68023256 12.6104651,0.639534884 10.1162791,0.639534884 C7.62209302,0.639534884 5.58139535,2.68023256 5.58139535,5.1744186 C5.58139535,7.66860465 7.62209302,9.70930233 10.1162791,9.70930233 L10.1162791,9.70930233 Z" id="path-1"></path>
        <mask id="mask-2" maskContentUnits="userSpaceOnUse" maskUnits="objectBoundingBox" x="0" y="0" width="19.5348837" height="23.3419445" fill="white">
            <use xlink:href="#path-1"></use>
        </mask>
        <path d="M19.1059911,23.9814794 L30,23.9814794 L30,19.06021 C30,14.3002173 23.5290698,12.5 20.2325581,12.5 C18.6533019,12.5 16.3454943,12.9131625 14.3696384,13.8669806 L14.3696384,13.8669806 M20.5813953,9.70930233 C23.0755814,9.70930233 25.1162791,7.66860465 25.1162791,5.1744186 C25.1162791,2.68023256 23.0755814,0.639534884 20.5813953,0.639534884 C18.0872093,0.639534884 16.0465116,2.68023256 16.0465116,5.1744186 C16.0465116,7.66860465 18.0872093,9.70930233 20.5813953,9.70930233 L20.5813953,9.70930233 L20.5813953,9.70930233 Z" id="path-3"></path>
        <mask id="mask-4" maskContentUnits="userSpaceOnUse" maskUnits="objectBoundingBox" x="0" y="0" width="15.6303616" height="23.3419445" fill="white">
            <use xlink:href="#path-3"></use>
        </mask>
    </defs>
    <g id="Page-1" stroke="none" stroke-width="1" fill="none" fill-rule="evenodd">
        <g id="icon_client" transform="translate(0.000000, -3.000000)">
            <g id="profile">
                <g id="group" transform="translate(0.000000, 3.000000)" stroke="#202147" stroke-width="3">
                    <use id="shape" mask="url(#mask-2)" xlink:href="#path-1"></use>
                    <use id="shape" mask="url(#mask-4)" xlink:href="#path-3"></use>
                </g>
                <rect id="bounds" x="0" y="0" width="30" height="29.5833333"></rect>
            </g>
        </g>
    </g>
</svg>